# xmcd
#
# Track frame offsets:
#  150
#  6722
#  12853
#  20271
#  27392
#  37172
#  43128
#  50557
#  57455
#  64741
#  70722
#  77423
#  84774
#  90566
#  97567
#  103156
#  111374
#  119992
#  125197
#  130822
#  138261
#
# Disc length: 1981 seconds
#
# Revision: 0
# Processed by: cddbd v1.5.1PL2 Copyright (c) Steve Scherf et al.
# Submitted via: AltoMP3_Maker 3.0
#
DISCID=2307bb15
DTITLE=Odd Squad, the - Mixed Nuts and Mistletoe
DYEAR=1900
DGENRE=
TTITLE0=Play Something Punky
TTITLE1=Stuck in This Traffic With You
TTITLE2=New York City Girl
TTITLE3=That's What I Hate About Mondays
TTITLE4=A Clone Again
TTITLE5=My Gift for Dad's Busted
TTITLE6=Crab Grass On The Lawn
TTITLE7=JELLO M.O.L.D.
TTITLE8=That's What The Fall's About
TTITLE9=Just a Home Owner
TTITLE10=Nascar
TTITLE11=Mrs. Dad
TTITLE12=Gas Prices Rising
TTITLE13=Crazy Little Guy Tom Cruise
TTITLE14=Joe Carbury Christmas
TTITLE15=Heads It's Pyjamas
TTITLE16=(Rein) Deer Run
TTITLE17=Wrap It
TTITLE18=You Really Shouldn't Have
TTITLE19=Shoppin' Bone
TTITLE20=Where It Don't Snow
EXTD=
EXTT0=
EXTT1=
EXTT2=
EXTT3=
EXTT4=
EXTT5=
EXTT6=
EXTT7=
EXTT8=
EXTT9=
EXTT10=
EXTT11=
EXTT12=
EXTT13=
EXTT14=
EXTT15=
EXTT16=
EXTT17=
EXTT18=
EXTT19=
EXTT20=
PLAYORDER=
